Coordinates
version=1
nRows=14
nColumns=42
inDegrees=yes

Units are S.I. units (second, meters, Newtons, ...)
If the header above contains a line with 'inDegrees', this indicates whether rotational values are in degrees (yes) or radians (no).

endheader
time	pelvis_tilt	pelvis_list	pelvis_rotation	pelvis_tx	pelvis_ty	pelvis_tz	hip_flexion_r	hip_adduction_r	hip_rotation_r	knee_angle_r	knee_adduction_r	knee_angle_r_beta	ankle_angle_r	subtalar_angle_r	mtp_angle_r	hip_flexion_l	hip_adduction_l	hip_rotation_l	knee_angle_l	knee_adduction_l	knee_angle_l_beta	ankle_angle_l	subtalar_angle_l	mtp_angle_l	lumbar_extension	lumbar_bending	lumbar_rotation	arm_flex_r	arm_add_r	arm_rot_r	elbow_flex_r	pro_sup_r	wrist_flex_r	wrist_dev_r	arm_flex_l	arm_add_l	arm_rot_l	elbow_flex_l	pro_sup_l	wrist_flex_l	wrist_dev_l
      1.10000000	      6.89584733	     -4.64227868	     -4.14704946	      0.16471139	      1.00884289	     -0.19862269	    -17.96482768	      3.64677684	     -3.46653218	      9.31536724	      8.52710618	      0.16258383	     13.20323003	      6.74370648	     -7.55281793	     18.36791454	    -15.01252019	    -12.68797769	     23.96682913	     10.51755476	      0.41830008	     -0.41126920	    -13.86699653	     -7.55281793	    -19.71193662	      0.50538756	     10.02312928	     19.23104107	    -18.33993309	    -10.22826445	     34.21319669	     90.00000001	      0.00000000	      0.00000000	    -10.65366682	     -9.06680360	    -19.90888208	     11.68848998	     90.00000001	      0.00000000	      0.00000000
      1.11000000	      6.30046856	     -5.08776122	     -4.40320996	      0.17789878	      1.00571111	     -0.19782693	    -18.05727142	      4.12716751	     -3.34437619	      9.63594365	      8.30692604	      0.16817894	     13.59848705	      6.87997085	     -7.55204457	     18.94164482	    -15.43632150	    -13.22610661	     20.83646631	     10.79597602	      0.36366494	     -0.39219789	    -12.30664101	     -7.55204457	    -19.11664528	      0.81425894	     10.39665718	     19.71792101	    -18.81993563	     -9.88530284	     34.86546250	     90.00000001	      0.00000000	      0.00000000	    -11.53073373	     -8.97791305	    -20.06238750	     11.65010163	     90.00000001	      0.00000000	      0.00000000
      1.12000000	      6.39324197	     -5.17075866	     -4.83780795	      0.19157024	      1.00349038	     -0.19724807	    -18.93615301	      3.90474532	     -3.14301511	      9.88931424	      8.41932911	      0.17260109	     14.04816422	      7.40753452	     -7.54999161	     18.36290303	    -15.47336068	    -13.88592382	     17.35498786	     11.32774886	      0.30290168	     -0.23632117	    -10.78136699	     -7.54999161	    -19.25086751	      0.65843138	     10.76972664	     20.06111188	    -19.36574108	     -9.06579582	     36.05461453	     90.00000001	      0.00000000	      0.00000000	    -12.19237704	     -8.86770365	    -20.77159998	     11.29405988	     90.00000001	      0.00000000	      0.00000000
      1.13000000	      6.14523111	     -5.33520953	     -5.19095936	      0.20521287	      1.00081549	     -0.19663403	    -19.39184178	      3.88692491	     -2.99261644	     10.25107305	      8.39633288	      0.17891498	     14.41502608	      7.76394580	     -7.54753657	     18.32130262	    -15.61213516	    -14.48234588	     14.36080623	     11.77971582	      0.25064335	     -0.21606513	     -9.01256931	     -7.54753657	    -19.00875648	      0.62808205	     11.07529122	     20.43626250	    -19.78125988	     -8.59820769	     36.84916434	     90.00000001	      0.00000000	      0.00000000	    -12.83212973	     -8.76665311	    -21.60775387	     11.02119646	     90.00000001	      0.00000000	      0.00000000
      1.14000000	      5.90848434	     -5.50272430	     -5.56597433	      0.21896632	      0.99815537	     -0.19595916	    -19.83367268	      3.88220969	     -2.79250916	     10.66574517	      8.31536095	      0.18615237	     14.71768925	      8.04716957	     -7.54510573	     18.30882713	    -15.80163083	    -15.11345417	     11.80647787	     12.25869068	      0.20606191	     -0.03329494	     -7.07456398	     -7.54510573	    -18.78261011	      0.59062030	     11.37214332	     20.75159519	    -20.16308583	     -8.13687962	     37.66286052	     90.00000001	      0.00000000	      0.00000000	    -13.44216925	     -8.67520280	    -22.34611734	     10.76237766	     90.00000001	      0.00000000	      0.00000000
      1.15000000	      5.45784943	     -5.75329999	     -5.88323038	      0.23274098	      0.99526718	     -0.19514076	    -20.00652203	      4.06173145	     -2.51818170	     11.17132618	      8.14189790	      0.19497642	     14.90728239	      8.09551571	     -7.54440154	     18.63938512	    -16.11671077	    -15.43406665	      9.74183026	     12.75830300	      0.17002701	      0.00471838	     -5.46458716	     -7.54440154	    -18.32409189	      0.65612242	     11.61841204	     21.03536538	    -20.42556224	     -7.85268875	     38.27060402	     90.00000001	      0.00000000	      0.00000000	    -14.14007820	     -8.63452485	    -22.56173563	     10.73735787	     90.00000001	      0.00000000	      0.00000000
      1.16000000	      5.54590530	     -5.64567080	     -6.30369264	      0.24707550	      0.99317132	     -0.19471486	    -20.76743731	      3.62896340	     -2.18842172	     11.62684287	      8.14384309	      0.20292669	     15.07282110	      8.27633481	     -7.54283961	     18.29621135	    -15.94909253	    -16.18927302	      8.08494637	     13.06141132	      0.14110893	      0.40192068	     -3.64706385	     -7.54283961	    -18.39550600	      0.29526517	     11.87193854	     21.13016206	    -20.76625769	     -7.35785617	     39.19159325	     90.00000001	      0.00000000	      0.00000000	    -14.58900812	     -8.56980124	    -23.33170042	     10.43646662	     90.00000001	      0.00000000	      0.00000000
      1.17000000	      5.23469862	     -5.69251512	     -6.53377521	      0.26128255	      0.99061633	     -0.19411400	    -21.06408290	      3.57881091	     -1.89448091	     12.14047589	      7.97506914	      0.21189128	     15.06756902	      8.27361830	     -7.54240810	     18.67355263	    -15.99851450	    -16.35614495	      7.22188614	     13.37825725	      0.12604569	      0.44990619	     -2.78590067	     -7.54240810	    -18.05073088	      0.15123691	     11.88721048	     21.35160789	    -20.82092895	     -7.24189211	     39.67795365	     90.00000001	      0.00000000	      0.00000000	    -15.18660735	     -8.55185532	    -23.51583792	     10.38756267	     90.00000001	      0.00000000	      0.00000000
      1.18000000	      5.13864930	     -5.58420006	     -6.97509762	      0.27581040	      0.98851251	     -0.19364445	    -21.47946872	      3.20886121	     -1.40775950	     12.86588622	      7.84483662	      0.22455208	     15.04868341	      8.20756849	     -7.54187210	     18.61164407	    -15.79821426	    -16.38191655	      6.46110291	     13.47951662	      0.11276752	      0.66380431	     -1.79927875	     -7.54187210	    -17.90491373	     -0.19632285	     12.15923436	     21.31447160	    -21.03173771	     -6.98984733	     40.34524985	     90.00000001	      0.00000000	      0.00000000	    -15.60904542	     -8.51738557	    -23.87106359	     10.34106609	     90.00000001	      0.00000000	      0.00000000
      1.19000000	      5.08176466	     -5.44929956	     -7.18507763	      0.29051207	      0.98652415	     -0.19322621	    -21.99330812	      2.92268433	     -0.96530939	     13.44326363	      7.66831874	      0.23462921	     14.89778761	      8.23294029	     -7.54160327	     18.80125254	    -15.57137540	    -16.20463728	      6.62091323	     13.55463366	      0.11555674	      0.69491307	     -1.59691827	     -7.54160327	    -17.79402389	     -0.55938465	     12.12423026	     21.35933669	    -21.03129176	     -6.93330419	     40.73538447	     90.00000001	      0.00000000	      0.00000000	    -16.00992494	     -8.55135323	    -24.00632784	     10.27156321	     90.00000001	      0.00000000	      0.00000000
      1.20000000	      5.35137525	     -4.73616619	     -7.79054654	      0.30586822	      0.98507847	     -0.19332050	    -22.61767481	      1.61030481	     -0.65671705	     14.42052818	      7.79290502	      0.25168570	     14.68869653	      7.87919814	     -7.54071360	     18.38983791	    -14.64339709	    -16.68423146	      6.95189463	     13.35412473	      0.12133345	      0.68280172	     -1.52431724	     -7.54071360	    -17.91243501	     -1.58447503	     12.42097222	     20.86923118	    -21.26749743	     -6.61750377	     41.81657323	     90.00000001	      0.00000000	      0.00000000	    -16.17733637	     -8.53153303	    -24.74533717	     10.06935801	     90.00000001	      0.00000000	      0.00000000
      1.21000000	      5.53453879	     -4.18736353	     -8.13392544	      0.32128826	      0.98365908	     -0.19329158	    -23.22439177	      0.70752951	     -0.26330348	     15.22418192	      7.71397334	      0.26571210	     14.32990676	      7.80263454	     -7.53987308	     18.26461415	    -13.90828542	    -16.56494066	      7.79070423	     13.21487563	      0.13597344	      0.34134549	     -1.89140821	     -7.53987308	    -17.94829459	     -2.40801825	     12.40473310	     20.61841628	    -21.20475337	     -6.61259201	     42.30040136	     90.00000001	      0.00000000	      0.00000000	    -16.31656992	     -8.56945725	    -25.39672411	      9.83030290	     90.00000001	      0.00000000	      0.00000000
      1.22000000	      5.57629099	     -3.91868236	     -8.39598918	      0.33677200	      0.98229062	     -0.19301206	    -23.68001020	      0.27417288	      0.35572847	     16.04946888	      7.44282600	      0.28011608	     13.90039303	      7.83836121	     -7.53958908	     18.25396875	    -13.54027649	    -15.82732014	      8.72020187	     13.21957428	      0.15219623	      0.02736845	     -1.99965303	     -7.53958908	    -17.85715151	     -2.92084786	     12.39971542	     20.33658387	    -21.07572790	     -6.63124119	     42.49839347	     90.00000001	      0.00000000	      0.00000000	    -16.52613697	     -8.63283533	    -25.52616949	      9.87822820	     90.00000001	      0.00000000	      0.00000000
      1.23000000	      5.87767347	     -2.81131880	     -8.79175603	      0.35252902	      0.98141952	     -0.19364981	    -23.97996805	     -1.42270209	      0.10988144	     17.55386002	      7.57785215	      0.30637265	     13.18249882	      7.63026328	     -7.53541462	     17.91967668	    -12.04951723	    -15.11200325	      9.58661195	     12.89353972	      0.16731794	     -1.79842468	     -4.97192432	     -7.53541462	    -17.93077800	     -4.32103797	     12.31194780	     19.70962070	    -20.97750524	     -6.74664286	     43.21889451	     90.00000001	      0.00000000	      0.00000000	    -15.97054616	     -8.69720807	    -28.30925897	      8.87752909	     90.00000001	      0.00000000	      0.00000000
